<mxfile host="65bd71144e">
    <diagram id="wjoyMVugPLmOtVeJ2qVA" name="tcp_ip">
        <mxGraphModel dx="480" dy="470" grid="1" gridSize="10" guides="1" tooltips="1" connect="1" arrows="1" fold="1" page="1" pageScale="1" pageWidth="850" pageHeight="1100" math="0" shadow="0">
            <root>
                <mxCell id="0"/>
                <mxCell id="1" parent="0"/>
                <mxCell id="2" value="Application" style="rounded=0;whiteSpace=wrap;html=1;fontSize=22;fillColor=#648FFF;fontColor=#FFFFFF;strokeColor=#FFFFFF;" parent="1" vertex="1">
                    <mxGeometry x="240" y="40" width="160" height="80" as="geometry"/>
                </mxCell>
                <mxCell id="3" value="Transport" style="rounded=0;whiteSpace=wrap;html=1;fontSize=22;fillColor=#785EF0;fontColor=#FFFFFF;strokeColor=#FFFFFF;" parent="1" vertex="1">
                    <mxGeometry x="240" y="120" width="160" height="80" as="geometry"/>
                </mxCell>
                <mxCell id="4" value="Network" style="rounded=0;whiteSpace=wrap;html=1;fontSize=22;fillColor=#DC267F;fontColor=#FFFFFF;strokeColor=#FFFFFF;" parent="1" vertex="1">
                    <mxGeometry x="240" y="200" width="160" height="80" as="geometry"/>
                </mxCell>
                <mxCell id="5" value="Link" style="rounded=0;whiteSpace=wrap;html=1;fontSize=22;fillColor=#FE6100;fontColor=#FFFFFF;strokeColor=#FFFFFF;" parent="1" vertex="1">
                    <mxGeometry x="240" y="280" width="160" height="80" as="geometry"/>
                </mxCell>
                <mxCell id="6" value="Physical" style="rounded=0;whiteSpace=wrap;html=1;fontSize=22;fillColor=#FFB000;fontColor=#FFFFFF;strokeColor=#FFFFFF;" parent="1" vertex="1">
                    <mxGeometry x="240" y="360" width="160" height="80" as="geometry"/>
                </mxCell>
                <mxCell id="9" value="Application" style="rounded=0;whiteSpace=wrap;html=1;fontSize=22;fillColor=#648FFF;fontColor=#FFFFFF;strokeColor=#FFFFFF;" parent="1" vertex="1">
                    <mxGeometry x="640" y="40" width="160" height="80" as="geometry"/>
                </mxCell>
                <mxCell id="10" value="Transport" style="rounded=0;whiteSpace=wrap;html=1;fontSize=22;fillColor=#785EF0;fontColor=#FFFFFF;strokeColor=#FFFFFF;" parent="1" vertex="1">
                    <mxGeometry x="640" y="120" width="160" height="80" as="geometry"/>
                </mxCell>
                <mxCell id="11" value="Network" style="rounded=0;whiteSpace=wrap;html=1;fontSize=22;fillColor=#DC267F;fontColor=#FFFFFF;strokeColor=#FFFFFF;" parent="1" vertex="1">
                    <mxGeometry x="640" y="200" width="160" height="80" as="geometry"/>
                </mxCell>
                <mxCell id="12" value="Link" style="rounded=0;whiteSpace=wrap;html=1;fontSize=22;fillColor=#FE6100;fontColor=#FFFFFF;strokeColor=#FFFFFF;" parent="1" vertex="1">
                    <mxGeometry x="640" y="280" width="160" height="80" as="geometry"/>
                </mxCell>
                <mxCell id="13" value="Physical" style="rounded=0;whiteSpace=wrap;html=1;fontSize=22;fillColor=#FFB000;fontColor=#FFFFFF;strokeColor=#FFFFFF;" parent="1" vertex="1">
                    <mxGeometry x="640" y="360" width="160" height="80" as="geometry"/>
                </mxCell>
                <mxCell id="16" style="edgeStyle=none;html=1;entryX=1;entryY=0.5;entryDx=0;entryDy=0;fontSize=22;strokeWidth=3;strokeColor=#FFFFFF;" parent="1" source="18" edge="1">
                    <mxGeometry relative="1" as="geometry">
                        <mxPoint x="400" y="160" as="targetPoint"/>
                    </mxGeometry>
                </mxCell>
                <mxCell id="17" style="edgeStyle=none;html=1;entryX=0;entryY=0.5;entryDx=0;entryDy=0;fontSize=22;strokeWidth=3;strokeColor=#FFFFFF;" parent="1" source="18" edge="1">
                    <mxGeometry relative="1" as="geometry">
                        <mxPoint x="640" y="160" as="targetPoint"/>
                    </mxGeometry>
                </mxCell>
                <mxCell id="18" value="Segments" style="text;html=1;align=center;verticalAlign=middle;whiteSpace=wrap;rounded=0;fontSize=22;fontColor=#FFFFFF;" parent="1" vertex="1">
                    <mxGeometry x="460" y="145" width="120" height="30" as="geometry"/>
                </mxCell>
                <mxCell id="28" style="edgeStyle=none;html=1;entryX=1;entryY=0.5;entryDx=0;entryDy=0;fontSize=22;strokeWidth=3;strokeColor=#FFFFFF;" parent="1" source="30" edge="1">
                    <mxGeometry relative="1" as="geometry">
                        <mxPoint x="400" y="80" as="targetPoint"/>
                    </mxGeometry>
                </mxCell>
                <mxCell id="29" style="edgeStyle=none;html=1;entryX=0;entryY=0.5;entryDx=0;entryDy=0;fontSize=22;strokeWidth=3;strokeColor=#FFFFFF;" parent="1" source="30" edge="1">
                    <mxGeometry relative="1" as="geometry">
                        <mxPoint x="640" y="80" as="targetPoint"/>
                    </mxGeometry>
                </mxCell>
                <mxCell id="30" value="Data" style="text;html=1;align=center;verticalAlign=middle;whiteSpace=wrap;rounded=0;fontSize=22;fontColor=#FFFFFF;" parent="1" vertex="1">
                    <mxGeometry x="490" y="65" width="60" height="30" as="geometry"/>
                </mxCell>
                <mxCell id="31" style="edgeStyle=none;html=1;entryX=1;entryY=0.5;entryDx=0;entryDy=0;fontSize=22;strokeWidth=3;strokeColor=#FFFFFF;" parent="1" source="33" edge="1">
                    <mxGeometry relative="1" as="geometry">
                        <mxPoint x="400" y="240" as="targetPoint"/>
                    </mxGeometry>
                </mxCell>
                <mxCell id="32" style="edgeStyle=none;html=1;entryX=0;entryY=0.5;entryDx=0;entryDy=0;fontSize=22;strokeWidth=3;strokeColor=#FFFFFF;" parent="1" source="33" edge="1">
                    <mxGeometry relative="1" as="geometry">
                        <mxPoint x="640" y="240" as="targetPoint"/>
                    </mxGeometry>
                </mxCell>
                <mxCell id="33" value="Packets" style="text;html=1;align=center;verticalAlign=middle;whiteSpace=wrap;rounded=0;fontSize=22;fontColor=#FFFFFF;" parent="1" vertex="1">
                    <mxGeometry x="470" y="225" width="100" height="30" as="geometry"/>
                </mxCell>
                <mxCell id="34" style="edgeStyle=none;html=1;entryX=1;entryY=0.5;entryDx=0;entryDy=0;fontSize=22;strokeWidth=3;strokeColor=#FFFFFF;" parent="1" source="36" edge="1">
                    <mxGeometry relative="1" as="geometry">
                        <mxPoint x="400" y="320" as="targetPoint"/>
                    </mxGeometry>
                </mxCell>
                <mxCell id="35" style="edgeStyle=none;html=1;entryX=0;entryY=0.5;entryDx=0;entryDy=0;fontSize=22;strokeWidth=3;strokeColor=#FFFFFF;" parent="1" source="36" edge="1">
                    <mxGeometry relative="1" as="geometry">
                        <mxPoint x="640" y="320" as="targetPoint"/>
                    </mxGeometry>
                </mxCell>
                <mxCell id="36" value="Frames" style="text;html=1;align=center;verticalAlign=middle;whiteSpace=wrap;rounded=0;fontSize=22;fontColor=#FFFFFF;" parent="1" vertex="1">
                    <mxGeometry x="470" y="305" width="100" height="30" as="geometry"/>
                </mxCell>
                <mxCell id="37" style="edgeStyle=none;html=1;entryX=1;entryY=0.5;entryDx=0;entryDy=0;fontSize=22;strokeWidth=3;strokeColor=#FFFFFF;" parent="1" source="39" edge="1">
                    <mxGeometry relative="1" as="geometry">
                        <mxPoint x="400" y="400" as="targetPoint"/>
                    </mxGeometry>
                </mxCell>
                <mxCell id="38" style="edgeStyle=none;html=1;entryX=0;entryY=0.5;entryDx=0;entryDy=0;fontSize=22;strokeWidth=3;strokeColor=#FFFFFF;" parent="1" source="39" edge="1">
                    <mxGeometry relative="1" as="geometry">
                        <mxPoint x="640" y="400" as="targetPoint"/>
                    </mxGeometry>
                </mxCell>
                <mxCell id="39" value="Bits" style="text;html=1;align=center;verticalAlign=middle;whiteSpace=wrap;rounded=0;fontSize=22;fontColor=#FFFFFF;" parent="1" vertex="1">
                    <mxGeometry x="490" y="385" width="60" height="30" as="geometry"/>
                </mxCell>
            </root>
        </mxGraphModel>
    </diagram>
    <diagram id="jHDwDbR-lN9UPfafi9mn" name="wireless_topology">
        <mxGraphModel dx="480" dy="470" grid="1" gridSize="10" guides="1" tooltips="1" connect="1" arrows="1" fold="1" page="1" pageScale="1" pageWidth="850" pageHeight="1100" math="0" shadow="0">
            <root>
                <mxCell id="0"/>
                <mxCell id="1" parent="0"/>
                <mxCell id="8SCB2laS9pTPdSnnxNs8-37" value="" style="rounded=0;whiteSpace=wrap;html=1;strokeColor=#DC267F;fontSize=22;fontColor=#FFFFFF;fillColor=none;strokeWidth=3;" parent="1" vertex="1">
                    <mxGeometry x="100" y="190" width="680" height="450" as="geometry"/>
                </mxCell>
                <mxCell id="8SCB2laS9pTPdSnnxNs8-31" value="" style="rounded=0;whiteSpace=wrap;html=1;strokeColor=#648FFF;fontSize=22;fontColor=#FFFFFF;fillColor=none;strokeWidth=3;" parent="1" vertex="1">
                    <mxGeometry x="140" y="230" width="260" height="370" as="geometry"/>
                </mxCell>
                <mxCell id="8SCB2laS9pTPdSnnxNs8-30" value="" style="rounded=0;whiteSpace=wrap;html=1;strokeColor=#648FFF;fontSize=22;fontColor=#FFFFFF;fillColor=none;strokeWidth=3;" parent="1" vertex="1">
                    <mxGeometry x="480" y="230" width="260" height="370" as="geometry"/>
                </mxCell>
                <mxCell id="8SCB2laS9pTPdSnnxNs8-8" value="" style="fontColor=#FFFFFF;verticalAlign=top;verticalLabelPosition=bottom;labelPosition=center;align=center;html=1;outlineConnect=0;fillColor=#CCCCCC;strokeColor=#6881B3;gradientColor=none;gradientDirection=north;strokeWidth=2;shape=mxgraph.networks.laptop;fontSize=22;" parent="1" vertex="1">
                    <mxGeometry x="220" y="495" width="100" height="55" as="geometry"/>
                </mxCell>
                <mxCell id="8SCB2laS9pTPdSnnxNs8-9" value="" style="fontColor=#FFFFFF;verticalAlign=top;verticalLabelPosition=bottom;labelPosition=center;align=center;html=1;outlineConnect=0;fillColor=#CCCCCC;strokeColor=#6881B3;gradientColor=none;gradientDirection=north;strokeWidth=2;shape=mxgraph.networks.mobile;fontSize=22;" parent="1" vertex="1">
                    <mxGeometry x="200" y="395" width="40" height="70" as="geometry"/>
                </mxCell>
                <mxCell id="8SCB2laS9pTPdSnnxNs8-10" value="" style="fontColor=#FFFFFF;verticalAlign=top;verticalLabelPosition=bottom;labelPosition=center;align=center;html=1;outlineConnect=0;fillColor=#CCCCCC;strokeColor=#6881B3;gradientColor=none;gradientDirection=north;strokeWidth=2;shape=mxgraph.networks.wireless_modem;fontSize=22;" parent="1" vertex="1">
                    <mxGeometry x="220" y="245" width="100" height="80" as="geometry"/>
                </mxCell>
                <mxCell id="8SCB2laS9pTPdSnnxNs8-17" style="edgeStyle=none;html=1;strokeColor=#FFFFFF;strokeWidth=3;fontSize=22;fontColor=#FFFFFF;endArrow=none;endFill=0;" parent="1" source="8SCB2laS9pTPdSnnxNs8-11" edge="1">
                    <mxGeometry relative="1" as="geometry">
                        <mxPoint x="440" y="90" as="targetPoint"/>
                    </mxGeometry>
                </mxCell>
                <mxCell id="8SCB2laS9pTPdSnnxNs8-11" value="" style="fontColor=#FFFFFF;verticalAlign=top;verticalLabelPosition=bottom;labelPosition=center;align=center;html=1;outlineConnect=0;fillColor=#CCCCCC;strokeColor=#6881B3;gradientColor=none;gradientDirection=north;strokeWidth=2;shape=mxgraph.networks.switch;fontSize=22;" parent="1" vertex="1">
                    <mxGeometry x="390" y="150" width="100" height="30" as="geometry"/>
                </mxCell>
                <mxCell id="8SCB2laS9pTPdSnnxNs8-12" value="" style="fontColor=#FFFFFF;verticalAlign=top;verticalLabelPosition=bottom;labelPosition=center;align=center;html=1;outlineConnect=0;fillColor=#CCCCCC;strokeColor=#6881B3;gradientColor=none;gradientDirection=north;strokeWidth=2;shape=mxgraph.networks.wireless_modem;fontSize=22;" parent="1" vertex="1">
                    <mxGeometry x="560" y="245" width="100" height="85" as="geometry"/>
                </mxCell>
                <mxCell id="8SCB2laS9pTPdSnnxNs8-14" value="" style="fontColor=#FFFFFF;verticalAlign=top;verticalLabelPosition=bottom;labelPosition=center;align=center;html=1;outlineConnect=0;fillColor=#CCCCCC;strokeColor=#6881B3;gradientColor=none;gradientDirection=north;strokeWidth=2;shape=mxgraph.networks.mobile;fontSize=22;" parent="1" vertex="1">
                    <mxGeometry x="300" y="395" width="40" height="70" as="geometry"/>
                </mxCell>
                <mxCell id="8SCB2laS9pTPdSnnxNs8-23" value="" style="fontColor=#FFFFFF;verticalAlign=top;verticalLabelPosition=bottom;labelPosition=center;align=center;html=1;outlineConnect=0;fillColor=#CCCCCC;strokeColor=#6881B3;gradientColor=none;gradientDirection=north;strokeWidth=2;shape=mxgraph.networks.pc;fontSize=22;" parent="1" vertex="1">
                    <mxGeometry x="630" y="395" width="100" height="70" as="geometry"/>
                </mxCell>
                <mxCell id="8SCB2laS9pTPdSnnxNs8-24" value="" style="fontColor=#FFFFFF;verticalAlign=top;verticalLabelPosition=bottom;labelPosition=center;align=center;html=1;outlineConnect=0;fillColor=#CCCCCC;strokeColor=#6881B3;gradientColor=none;gradientDirection=north;strokeWidth=2;shape=mxgraph.networks.laptop;fontSize=22;" parent="1" vertex="1">
                    <mxGeometry x="490" y="410" width="100" height="55" as="geometry"/>
                </mxCell>
                <mxCell id="8SCB2laS9pTPdSnnxNs8-25" value="" style="fontColor=#FFFFFF;verticalAlign=top;verticalLabelPosition=bottom;labelPosition=center;align=center;html=1;outlineConnect=0;fillColor=#CCCCCC;strokeColor=#6881B3;gradientColor=none;gradientDirection=north;strokeWidth=2;shape=mxgraph.networks.printer;fontSize=22;" parent="1" vertex="1">
                    <mxGeometry x="570" y="495" width="80" height="80" as="geometry"/>
                </mxCell>
                <mxCell id="8SCB2laS9pTPdSnnxNs8-26" value="BSS" style="text;html=1;strokeColor=none;fillColor=none;align=right;verticalAlign=middle;whiteSpace=wrap;rounded=0;fontSize=22;fontColor=#FFFFFF;" parent="1" vertex="1">
                    <mxGeometry x="340" y="570" width="60" height="30" as="geometry"/>
                </mxCell>
                <mxCell id="8SCB2laS9pTPdSnnxNs8-32" value="BSS" style="text;html=1;strokeColor=none;fillColor=none;align=right;verticalAlign=middle;whiteSpace=wrap;rounded=0;fontSize=22;fontColor=#FFFFFF;" parent="1" vertex="1">
                    <mxGeometry x="680" y="570" width="60" height="30" as="geometry"/>
                </mxCell>
                <mxCell id="8SCB2laS9pTPdSnnxNs8-34" value="ESS" style="text;html=1;strokeColor=none;fillColor=none;align=right;verticalAlign=middle;whiteSpace=wrap;rounded=0;fontSize=22;fontColor=#FFFFFF;" parent="1" vertex="1">
                    <mxGeometry x="720" y="610" width="60" height="30" as="geometry"/>
                </mxCell>
                <mxCell id="8SCB2laS9pTPdSnnxNs8-40" value="&lt;font style=&quot;font-size: 18px;&quot;&gt;&lt;b&gt;SSID: &lt;/b&gt;Campus-WiFi&lt;/font&gt;" style="text;html=1;strokeColor=none;fillColor=none;align=center;verticalAlign=middle;whiteSpace=wrap;rounded=0;fontSize=22;fontColor=#FFFFFF;" parent="1" vertex="1">
                    <mxGeometry x="310" y="610" width="260" height="30" as="geometry"/>
                </mxCell>
                <mxCell id="8SCB2laS9pTPdSnnxNs8-41" value="&lt;font style=&quot;font-size: 18px;&quot;&gt;&lt;b&gt;BSSID: &lt;/b&gt;xx:xx:xx:xx:xx:xx&lt;/font&gt;" style="text;html=1;strokeColor=none;fillColor=none;align=center;verticalAlign=middle;whiteSpace=wrap;rounded=0;fontSize=22;fontColor=#FFFFFF;" parent="1" vertex="1">
                    <mxGeometry x="140" y="330" width="260" height="30" as="geometry"/>
                </mxCell>
                <mxCell id="8SCB2laS9pTPdSnnxNs8-42" value="&lt;font style=&quot;font-size: 18px;&quot;&gt;&lt;b&gt;BSSID: &lt;/b&gt;yy:yy:yy:yy:yy:yy&lt;/font&gt;" style="text;html=1;strokeColor=none;fillColor=none;align=center;verticalAlign=middle;whiteSpace=wrap;rounded=0;fontSize=22;fontColor=#FFFFFF;" parent="1" vertex="1">
                    <mxGeometry x="480" y="330" width="260" height="30" as="geometry"/>
                </mxCell>
                <mxCell id="8SCB2laS9pTPdSnnxNs8-43" value="" style="endArrow=none;html=1;strokeColor=#FFFFFF;strokeWidth=3;fontSize=18;fontColor=#FFFFFF;entryX=0.1;entryY=1;entryDx=0;entryDy=0;entryPerimeter=0;" parent="1" source="8SCB2laS9pTPdSnnxNs8-10" target="8SCB2laS9pTPdSnnxNs8-11" edge="1">
                    <mxGeometry width="50" height="50" relative="1" as="geometry">
                        <mxPoint x="460" y="350" as="sourcePoint"/>
                        <mxPoint x="510" y="300" as="targetPoint"/>
                    </mxGeometry>
                </mxCell>
                <mxCell id="8SCB2laS9pTPdSnnxNs8-44" value="" style="endArrow=none;html=1;strokeColor=#FFFFFF;strokeWidth=3;fontSize=18;fontColor=#FFFFFF;entryX=0.9;entryY=1;entryDx=0;entryDy=0;entryPerimeter=0;" parent="1" source="8SCB2laS9pTPdSnnxNs8-12" target="8SCB2laS9pTPdSnnxNs8-11" edge="1">
                    <mxGeometry width="50" height="50" relative="1" as="geometry">
                        <mxPoint x="329.5238095238094" y="255" as="sourcePoint"/>
                        <mxPoint x="410.0000000000002" y="190" as="targetPoint"/>
                    </mxGeometry>
                </mxCell>
                <mxCell id="8SCB2laS9pTPdSnnxNs8-47" value="&lt;b&gt;Definitions:&lt;/b&gt;&lt;br&gt;AP: Access Point&lt;br&gt;BSS: Basic Service Set&lt;br&gt;ESS: Extended Service Set&lt;br&gt;SSID: Service Set Identifier" style="text;html=1;strokeColor=none;fillColor=none;align=left;verticalAlign=top;whiteSpace=wrap;rounded=0;fontSize=18;fontColor=#FFFFFF;" parent="1" vertex="1">
                    <mxGeometry x="100" y="60" width="260" height="80" as="geometry"/>
                </mxCell>
                <mxCell id="8SCB2laS9pTPdSnnxNs8-49" value="&lt;font style=&quot;font-size: 10px;&quot;&gt;Campus-WiFi&lt;/font&gt;" style="text;html=1;strokeColor=none;fillColor=none;align=left;verticalAlign=middle;whiteSpace=wrap;rounded=0;fontSize=22;fontColor=#FFFFFF;" parent="1" vertex="1">
                    <mxGeometry x="190" y="255" width="80" height="30" as="geometry"/>
                </mxCell>
                <mxCell id="8SCB2laS9pTPdSnnxNs8-50" value="&lt;font style=&quot;font-size: 10px;&quot;&gt;Campus-WiFi&lt;/font&gt;" style="text;html=1;strokeColor=none;fillColor=none;align=left;verticalAlign=middle;whiteSpace=wrap;rounded=0;fontSize=22;fontColor=#FFFFFF;" parent="1" vertex="1">
                    <mxGeometry x="530" y="255" width="80" height="30" as="geometry"/>
                </mxCell>
                <mxCell id="8SCB2laS9pTPdSnnxNs8-51" value="&lt;span style=&quot;font-size: 18px;&quot;&gt;&lt;b&gt;AP1&lt;/b&gt;&lt;/span&gt;" style="text;html=1;strokeColor=none;fillColor=none;align=center;verticalAlign=middle;whiteSpace=wrap;rounded=0;fontSize=22;fontColor=#FFFFFF;" parent="1" vertex="1">
                    <mxGeometry x="330" y="295" width="40" height="30" as="geometry"/>
                </mxCell>
                <mxCell id="8SCB2laS9pTPdSnnxNs8-53" value="&lt;span style=&quot;font-size: 18px;&quot;&gt;&lt;b&gt;AP2&lt;/b&gt;&lt;/span&gt;" style="text;html=1;strokeColor=none;fillColor=none;align=center;verticalAlign=middle;whiteSpace=wrap;rounded=0;fontSize=22;fontColor=#FFFFFF;" parent="1" vertex="1">
                    <mxGeometry x="670" y="295" width="40" height="30" as="geometry"/>
                </mxCell>
                <mxCell id="8SCB2laS9pTPdSnnxNs8-54" value="&lt;span style=&quot;font-size: 18px;&quot;&gt;&lt;b&gt;Router&lt;/b&gt;&lt;/span&gt;" style="text;html=1;strokeColor=none;fillColor=none;align=center;verticalAlign=middle;whiteSpace=wrap;rounded=0;fontSize=22;fontColor=#FFFFFF;" parent="1" vertex="1">
                    <mxGeometry x="500" y="150" width="60" height="30" as="geometry"/>
                </mxCell>
                <mxCell id="2" value="" style="html=1;outlineConnect=0;fillColor=#CCCCCC;strokeColor=#6881B3;gradientColor=none;gradientDirection=north;strokeWidth=2;shape=mxgraph.networks.cloud;fontColor=#ffffff;" parent="1" vertex="1">
                    <mxGeometry x="395" y="60" width="90" height="50" as="geometry"/>
                </mxCell>
                <mxCell id="3" value="&lt;span style=&quot;font-size: 18px;&quot;&gt;&lt;b&gt;Internet&lt;/b&gt;&lt;/span&gt;" style="text;html=1;strokeColor=none;fillColor=none;align=center;verticalAlign=middle;whiteSpace=wrap;rounded=0;fontSize=22;fontColor=#FFFFFF;" parent="1" vertex="1">
                    <mxGeometry x="500" y="70" width="60" height="30" as="geometry"/>
                </mxCell>
            </root>
        </mxGraphModel>
    </diagram>
</mxfile>